# xmcd
#
# Track frame offsets: 
#        150
#        13124
#        24389
#        41260
#        55299
#        86235
#        96213
#        112083
#        128356
#        137553
#        152782
#        160776
#
# Disc length: 2311 seconds
#
# Revision: 0
# Processed by: cddbd v1.5.2PL0 Copyright (c) Steve Scherf et al.
# Submitted via: ExactAudioCopy v0.99pb4
#
DISCID=9109050c
DTITLE=Guido Henn und seine Goldene Blasmusik - Ich bin verrückt nach 
DTITLE=guter Blasmusik
DYEAR=1900
DGENRE=Blasmusik
TTITLE0=Sternstunden
TTITLE1=Ich bin verrückt nach guter Blasmusik
TTITLE2=Polkaglanz
TTITLE3=www.polkas.de
TTITLE4=Karnewalzer
TTITLE5=Alle Neune
TTITLE6=Polkaträume
TTITLE7=Zwei Musikantenherzen
TTITLE8=Europastadt
TTITLE9=Zum weinen schön
TTITLE10=Klarinettenzauberei
TTITLE11=In der Pulvermühle
EXTD=
EXTT0=
EXTT1=
EXTT2=
EXTT3=
EXTT4=
EXTT5=
EXTT6=
EXTT7=
EXTT8=
EXTT9=
EXTT10=
EXTT11=
PLAYORDER=
